<svg width="471" height="492" viewBox="0 0 471 492" fill="none" xmlns="http://www.w3.org/2000/svg">
<g clip-path="url(#clip0_3133_7824)">
<mask id="mask0_3133_7824" style="mask-type:alpha" maskUnits="userSpaceOnUse" x="0" y="0" width="491" height="492">
<circle cx="245.5" cy="245.85" r="245.5" fill="url(#paint0_radial_3133_7824)"/>
</mask>
<g mask="url(#mask0_3133_7824)">
<path opacity="0.5" d="M177.903 -31.6501V51.288C177.903 57.552 182.987 62.63 189.258 62.63H269.452C275.723 62.63 280.806 67.708 280.806 73.972V154.075C280.806 160.339 285.89 165.417 292.161 165.417H372.355C378.626 165.417 383.71 170.495 383.71 176.759V256.861C383.71 263.125 388.793 268.203 395.065 268.203H475.258C481.529 268.203 486.613 273.281 486.613 279.545V359.648C486.613 365.912 491.697 370.99 497.968 370.99H581M75 -31.6501V51.288C75 57.552 80.0837 62.63 86.3548 62.63H166.548C172.819 62.63 177.903 67.708 177.903 73.972V154.075C177.903 160.339 182.987 165.417 189.258 165.417H269.452C275.723 165.417 280.806 170.495 280.806 176.759V256.861C280.806 263.125 275.723 268.203 269.452 268.203H189.258C182.987 268.203 177.903 263.125 177.903 256.861V175.341L177.804 174.671C177.042 169.534 172.676 165.698 167.478 165.598L158.032 165.417H86.3548C80.0837 165.417 75 170.495 75 176.759V256.861C75 263.125 80.0837 268.203 86.3548 268.203H167.258L169.954 268.383C174.427 268.681 177.903 272.392 177.903 276.87V285.571M177.903 276.71V359.648C177.903 365.912 182.987 370.99 189.258 370.99H269.452C275.723 370.99 280.806 376.068 280.806 382.332V462.435C280.806 468.699 285.89 473.777 292.161 473.777H372.355C378.626 473.777 383.71 478.855 383.71 485.119V565.221C383.71 571.485 388.793 576.563 395.065 576.563H475.258C481.529 576.563 486.613 581.641 486.613 587.905V668.008C486.613 674.272 491.697 679.35 497.968 679.35H581" stroke="url(#paint1_linear_3133_7824)" stroke-width="1.27532"/>
<rect x="249" y="60.3499" width="64" height="64" rx="32" fill="#0D284C"/>
<path fill-rule="evenodd" clip-rule="evenodd" d="M275.439 80.3499C275.263 80.3498 275.089 80.3844 274.926 80.4519C274.764 80.5195 274.616 80.6184 274.492 80.7432L274.489 80.746L270.886 84.3499H291.114L287.51 80.746L287.508 80.7432C287.384 80.6184 287.236 80.5195 287.074 80.4519C286.911 80.3844 286.737 80.3498 286.561 80.3499H275.439ZM293 87.0166H269V89.6832C269 90.0369 269.14 90.376 269.39 90.626C269.632 90.8679 269.958 91.0073 270.299 91.0161C270.775 90.9817 271.229 90.7976 271.595 90.4897C271.62 90.4686 271.646 90.4484 271.672 90.4292C272.059 90.15 272.523 89.9997 273 89.9997C273.477 89.9997 273.941 90.15 274.328 90.4292C274.354 90.4484 274.38 90.4686 274.405 90.4897C274.762 90.7902 275.203 90.9727 275.667 91.0134C276.13 90.9727 276.571 90.7902 276.928 90.4897C276.953 90.4686 276.979 90.4484 277.006 90.4292C277.392 90.15 277.857 89.9997 278.333 89.9997C278.81 89.9997 279.275 90.15 279.661 90.4292C279.687 90.4484 279.713 90.4686 279.738 90.4897C280.095 90.7902 280.536 90.9727 281 91.0134C281.464 90.9727 281.904 90.7902 282.261 90.4897C282.287 90.4686 282.312 90.4484 282.339 90.4292C282.725 90.15 283.19 89.9997 283.667 89.9997C284.143 89.9997 284.608 90.15 284.994 90.4292C285.021 90.4484 285.047 90.4686 285.072 90.4897C285.429 90.7902 285.869 90.9727 286.333 91.0134C286.797 90.9727 287.238 90.7902 287.595 90.4897C287.62 90.4686 287.646 90.4484 287.672 90.4292C288.059 90.15 288.523 89.9997 289 89.9997C289.477 89.9997 289.941 90.15 290.328 90.4292C290.354 90.4484 290.38 90.4686 290.405 90.4897C290.771 90.7976 291.225 90.9817 291.701 91.0161C292.042 91.0073 292.368 90.8679 292.609 90.626C292.859 90.376 293 90.0368 293 89.6832V87.0166ZM290.333 93.445C289.859 93.2901 289.409 93.0636 289 92.7719C288.241 93.3129 287.342 93.6297 286.407 93.6812C286.358 93.6839 286.309 93.6839 286.26 93.6812C285.324 93.6297 284.425 93.3129 283.667 92.7719C282.908 93.3129 282.009 93.6297 281.073 93.6812C281.024 93.6839 280.975 93.6839 280.927 93.6812C279.991 93.6297 279.092 93.3129 278.333 92.7719C277.575 93.3129 276.676 93.6297 275.74 93.6812C275.691 93.6839 275.642 93.6839 275.593 93.6812C274.658 93.6297 273.759 93.3129 273 92.7719C272.591 93.0636 272.141 93.2901 271.667 93.445V103.017C271.667 103.37 271.807 103.709 272.057 103.959C272.307 104.209 272.646 104.35 273 104.35H275.667V100.35C275.667 99.289 276.088 98.2716 276.838 97.5215C277.588 96.7713 278.606 96.3499 279.667 96.3499H282.333C283.394 96.3499 284.412 96.7713 285.162 97.5215C285.912 98.2716 286.333 99.289 286.333 100.35V104.35H289C289.354 104.35 289.693 104.209 289.943 103.959C290.193 103.709 290.333 103.37 290.333 103.017V93.445ZM283.667 104.35V100.35C283.667 99.9963 283.526 99.6571 283.276 99.4071C283.026 99.157 282.687 99.0166 282.333 99.0166H279.667C279.313 99.0166 278.974 99.157 278.724 99.4071C278.474 99.6571 278.333 99.9963 278.333 100.35V104.35H283.667ZM277 107.017H289C290.061 107.017 291.078 106.595 291.828 105.845C292.578 105.095 293 104.077 293 103.017V93.4545C293.557 93.2575 294.069 92.9375 294.495 92.5117C295.245 91.7615 295.667 90.7441 295.667 89.6832V85.6832C295.667 85.3296 295.526 84.9905 295.276 84.7404L289.399 78.8632C289.398 78.8626 289.398 78.862 289.397 78.8614C289.025 78.4879 288.583 78.1916 288.097 77.9894C287.61 77.787 287.087 77.6829 286.56 77.6832C286.56 77.6832 286.56 77.6832 286.56 77.6832H275.44M277 107.017H273C271.939 107.017 270.922 106.595 270.171 105.845C269.421 105.095 269 104.077 269 103.017V93.4545C268.443 93.2575 267.931 92.9375 267.505 92.5117C266.755 91.7615 266.333 90.7441 266.333 89.6832V85.6832C266.333 85.3296 266.474 84.9905 266.724 84.7404L272.601 78.8632C272.601 78.8627 272.602 78.8622 272.603 78.8616C272.974 78.4881 273.416 78.1916 273.903 77.9894C274.39 77.787 274.913 77.6829 275.44 77.6832" fill="#2C85FC"/>
<rect x="208" y="350.35" width="52" height="52" rx="26" fill="#0D284C"/>
<path fill-rule="evenodd" clip-rule="evenodd" d="M226.067 363.983C226.287 363.689 226.633 363.516 227 363.516H241C241.367 363.516 241.713 363.689 241.933 363.983L245.433 368.65C245.585 368.852 245.667 369.097 245.667 369.35V385.683C245.667 386.611 245.298 387.502 244.641 388.158C243.985 388.814 243.095 389.183 242.167 389.183H225.833C224.905 389.183 224.015 388.814 223.358 388.158C222.702 387.502 222.333 386.611 222.333 385.683V369.35C222.333 369.097 222.415 368.852 222.567 368.65L226.067 363.983ZM227.583 365.85L225.833 368.183H242.167L240.417 365.85H227.583ZM243.333 370.516H224.667V385.683C224.667 385.993 224.79 386.289 225.008 386.508C225.227 386.727 225.524 386.85 225.833 386.85H242.167C242.476 386.85 242.773 386.727 242.992 386.508C243.21 386.289 243.333 385.993 243.333 385.683V370.516ZM229.333 372.85C229.978 372.85 230.5 373.372 230.5 374.016C230.5 374.945 230.869 375.835 231.525 376.491C232.181 377.148 233.072 377.516 234 377.516C234.928 377.516 235.818 377.148 236.475 376.491C237.131 375.835 237.5 374.945 237.5 374.016C237.5 373.372 238.022 372.85 238.667 372.85C239.311 372.85 239.833 373.372 239.833 374.016C239.833 375.564 239.219 377.047 238.125 378.141C237.031 379.235 235.547 379.85 234 379.85C232.453 379.85 230.969 379.235 229.875 378.141C228.781 377.047 228.167 375.564 228.167 374.016C228.167 373.372 228.689 372.85 229.333 372.85Z" fill="#2C85FC"/>
<rect x="54" y="208.35" width="44" height="44" rx="22" fill="#0E474C"/>
<path fill-rule="evenodd" clip-rule="evenodd" d="M67.5656 221.915C68.0344 221.447 68.6703 221.183 69.3334 221.183H75.31C75.973 221.183 76.6089 221.447 77.0776 221.916C77.0776 221.916 77.0777 221.916 77.0776 221.916L84.3328 229.171C84.8643 229.706 85.1627 230.429 85.1627 231.183C85.1627 231.937 84.8643 232.661 84.3328 233.196L84.331 233.197L78.8476 238.681L78.8458 238.683C78.3109 239.214 77.5874 239.513 76.8334 239.513C76.0793 239.513 75.3559 239.214 74.821 238.683L74.8191 238.681L67.5659 231.428C67.5658 231.428 67.5659 231.428 67.5659 231.428C67.0971 230.959 66.8335 230.323 66.8334 229.66V223.683C66.8334 223.02 67.0968 222.384 67.5656 221.915ZM69.3334 222.85C69.1124 222.85 68.9004 222.938 68.7441 223.094C68.5878 223.25 68.5 223.462 68.5 223.683V229.66C68.5 229.66 68.5 229.66 68.5 229.66C68.5001 229.881 68.588 230.093 68.7442 230.249L75.9958 237.5C75.996 237.501 75.9963 237.501 75.9966 237.501C76.2192 237.722 76.5199 237.846 76.8334 237.846C77.1468 237.846 77.4476 237.722 77.6701 237.501C77.6704 237.501 77.6707 237.501 77.671 237.5L83.1506 232.021C83.1509 232.021 83.1512 232.02 83.1514 232.02C83.3721 231.797 83.496 231.497 83.496 231.183C83.496 230.87 83.3721 230.569 83.1514 230.346C83.1512 230.346 83.1509 230.346 83.1506 230.346L75.8991 223.094C75.7429 222.938 75.531 222.85 75.31 222.85C75.31 222.85 75.3101 222.85 75.31 222.85H69.3334ZM72.25 227.017C72.4802 227.017 72.6667 226.83 72.6667 226.6C72.6667 226.37 72.4802 226.183 72.25 226.183C72.0199 226.183 71.8334 226.37 71.8334 226.6C71.8334 226.83 72.0199 227.017 72.25 227.017ZM71 226.6C71 225.91 71.5597 225.35 72.25 225.35C72.9404 225.35 73.5 225.91 73.5 226.6C73.5 227.29 72.9404 227.85 72.25 227.85C71.5597 227.85 71 227.29 71 226.6Z" fill="#2DEBFC"/>
</g>
</g>
<defs>
<radialGradient id="paint0_radial_3133_7824" cx="0" cy="0" r="1" gradientUnits="userSpaceOnUse" gradientTransform="translate(245.5 186.85) rotate(90) scale(304.5 444.919)">
<stop stop-color="#D9D9D9"/>
<stop offset="1" stop-opacity="0"/>
</radialGradient>
<linearGradient id="paint1_linear_3133_7824" x1="75" y1="-31.6501" x2="568.967" y2="580.301" gradientUnits="userSpaceOnUse">
<stop stop-color="#0E474C"/>
<stop offset="0.9375" stop-color="#2266C1"/>
</linearGradient>
<clipPath id="clip0_3133_7824">
<rect width="471" height="491" fill="white" transform="translate(0 0.349854)"/>
</clipPath>
</defs>
</svg>
